<svg viewBox="0 0 900 700" xmlns="http://www.w3.org/2000/svg">
    <!-- Background -->
    <rect width="900" height="700" fill="#f8f9fa"/>
    
    <!-- Warehouse outer walls -->
    <rect x="50" y="50" width="800" height="600" 
          fill="none" stroke="#333" stroke-width="4"/>
    
    <!-- Storage areas -->
    <g class="storage-areas">
        <!-- Area A -->
        <rect x="100" y="100" width="150" height="200" 
              fill="#e3f2fd" stroke="#1976d2" stroke-width="2"/>
        <text x="175" y="120" text-anchor="middle" font-size="14" font-weight="bold">Area A</text>
        
        <!-- Area B -->
        <rect x="300" y="100" width="150" height="200" 
              fill="#f3e5f5" stroke="#7b1fa2" stroke-width="2"/>
        <text x="375" y="120" text-anchor="middle" font-size="14" font-weight="bold">Area B</text>
        
        <!-- Area C -->
        <rect x="500" y="100" width="150" height="200" 
              fill="#e8f5e8" stroke="#388e3c" stroke-width="2"/>
        <text x="575" y="120" text-anchor="middle" font-size="14" font-weight="bold">Area C</text>
        
        <!-- Area D -->
        <rect x="700" y="100" width="100" height="200" 
              fill="#fff3e0" stroke="#f57c00" stroke-width="2"/>
        <text x="750" y="120" text-anchor="middle" font-size="14" font-weight="bold">Area D</text>
        
        <!-- Area E -->
        <rect x="100" y="350" width="200" height="150" 
              fill="#fce4ec" stroke="#c2185b" stroke-width="2"/>
        <text x="200" y="370" text-anchor="middle" font-size="14" font-weight="bold">Area E</text>
        
        <!-- Area F -->
        <rect x="350" y="350" width="200" height="150" 
              fill="#f1f8e9" stroke="#689f38" stroke-width="2"/>
        <text x="450" y="370" text-anchor="middle" font-size="14" font-weight="bold">Area F</text>
        
        <!-- Area G -->
        <rect x="600" y="350" width="200" height="150" 
              fill="#e0f2f1" stroke="#00796b" stroke-width="2"/>
        <text x="700" y="370" text-anchor="middle" font-size="14" font-weight="bold">Area G</text>
    </g>
    
    <!-- Aisles -->
    <g class="aisles">
        <rect x="50" y="315" width="800" height="20" fill="#e0e0e0"/>
        <rect x="265" y="50" width="15" height="600" fill="#e0e0e0"/>
        <rect x="465" y="50" width="15" height="600" fill="#e0e0e0"/>
        <rect x="665" y="50" width="15" height="600" fill="#e0e0e0"/>
    </g>
    
    <!-- Dock doors -->
    <g class="dock-doors">
        <rect x="30" y="200" width="20" height="60" fill="#ff5722"/>
        <text x="25" y="240" font-size="10" fill="#333">Dock 1</text>
        
        <rect x="30" y="300" width="20" height="60" fill="#ff5722"/>
        <text x="25" y="340" font-size="10" fill="#333">Dock 2</text>
        
        <rect x="30" y="400" width="20" height="60" fill="#ff5722"/>
        <text x="25" y="440" font-size="10" fill="#333">Dock 3</text>
    </g>
    
    <!-- Office area -->
    <rect x="700" y="550" width="150" height="100" 
          fill="#f5f5f5" stroke="#666" stroke-width="2"/>
    <text x="775" y="570" text-anchor="middle" font-size="12" font-weight="bold">Office</text>
    
    <!-- Shelving units (simplified) -->
    <g class="shelving" stroke="#999" stroke-width="1" fill="#fff">
        <!-- Area A shelves -->
        <rect x="120" y="140" width="30" height="15"/>
        <rect x="120" y="170" width="30" height="15"/>
        <rect x="120" y="200" width="30" height="15"/>
        <rect x="120" y="230" width="30" height="15"/>
        <rect x="180" y="140" width="30" height="15"/>
        <rect x="180" y="170" width="30" height="15"/>
        <rect x="180" y="200" width="30" height="15"/>
        <rect x="180" y="230" width="30" height="15"/>
        
        <!-- Area B shelves -->
        <rect x="320" y="140" width="30" height="15"/>
        <rect x="320" y="170" width="30" height="15"/>
        <rect x="320" y="200" width="30" height="15"/>
        <rect x="320" y="230" width="30" height="15"/>
        <rect x="380" y="140" width="30" height="15"/>
        <rect x="380" y="170" width="30" height="15"/>
        <rect x="380" y="200" width="30" height="15"/>
        <rect x="380" y="230" width="30" height="15"/>
        
        <!-- Area C shelves -->
        <rect x="520" y="140" width="30" height="15"/>
        <rect x="520" y="170" width="30" height="15"/>
        <rect x="520" y="200" width="30" height="15"/>
        <rect x="520" y="230" width="30" height="15"/>
        <rect x="580" y="140" width="30" height="15"/>
        <rect x="580" y="170" width="30" height="15"/>
        <rect x="580" y="200" width="30" height="15"/>
        <rect x="580" y="230" width="30" height="15"/>
        
        <!-- Area D shelves -->
        <rect x="720" y="140" width="60" height="15"/>
        <rect x="720" y="170" width="60" height="15"/>
        <rect x="720" y="200" width="60" height="15"/>
        <rect x="720" y="230" width="60" height="15"/>
        
        <!-- Area E shelves -->
        <rect x="120" y="380" width="30" height="15"/>
        <rect x="120" y="410" width="30" height="15"/>
        <rect x="120" y="440" width="30" height="15"/>
        <rect x="170" y="380" width="30" height="15"/>
        <rect x="170" y="410" width="30" height="15"/>
        <rect x="170" y="440" width="30" height="15"/>
        <rect x="220" y="380" width="30" height="15"/>
        <rect x="220" y="410" width="30" height="15"/>
        <rect x="220" y="440" width="30" height="15"/>
        
        <!-- Area F shelves -->
        <rect x="370" y="380" width="30" height="15"/>
        <rect x="370" y="410" width="30" height="15"/>
        <rect x="370" y="440" width="30" height="15"/>
        <rect x="420" y="380" width="30" height="15"/>
        <rect x="420" y="410" width="30" height="15"/>
        <rect x="420" y="440" width="30" height="15"/>
        <rect x="470" y="380" width="30" height="15"/>
        <rect x="470" y="410" width="30" height="15"/>
        <rect x="470" y="440" width="30" height="15"/>
        
        <!-- Area G shelves -->
        <rect x="620" y="380" width="30" height="15"/>
        <rect x="620" y="410" width="30" height="15"/>
        <rect x="620" y="440" width="30" height="15"/>
        <rect x="670" y="380" width="30" height="15"/>
        <rect x="670" y="410" width="30" height="15"/>
        <rect x="670" y="440" width="30" height="15"/>
        <rect x="720" y="380" width="30" height="15"/>
        <rect x="720" y="410" width="30" height="15"/>
        <rect x="720" y="440" width="30" height="15"/>
    </g>
    
    <!-- Legend -->
    <g class="legend" transform="translate(50, 550)">
        <rect x="0" y="0" width="200" height="80" fill="white" stroke="#ccc" stroke-width="1"/>
        <text x="10" y="20" font-size="12" font-weight="bold">Legend:</text>
        <circle cx="20" cy="35" r="4" fill="#28a745"/>
        <text x="35" y="40" font-size="10">Normal Stock</text>
        <circle cx="20" cy="50" r="4" fill="#ffc107"/>
        <text x="35" y="55" font-size="10">Low Stock (≤5)</text>
        <circle cx="20" cy="65" r="4" fill="#dc3545"/>
        <text x="35" y="70" font-size="10">Out of Stock</text>
        <circle cx="120" cy="35" r="4" fill="#007bff"/>
        <text x="135" y="40" font-size="10">Selected</text>
    </g>
</svg>
